<svg xmlns="http://www.w3.org/2000/svg" viewBox="0 0 100 120" width="512" height="512">
  <defs>
    <radialGradient id="pg" cx="42%" cy="38%" r="58%">
      <stop offset="0%" stop-color="#42A5F5"/>
      <stop offset="100%" stop-color="#1565C0"/>
    </radialGradient>
    <radialGradient id="bg" cx="50%" cy="50%" r="50%">
      <stop offset="0%" stop-color="#112040"/>
      <stop offset="100%" stop-color="#0A1628"/>
    </radialGradient>
  </defs>
  <rect width="100" height="120" rx="18" fill="url(#bg)"/>
  <path d="M 18 102 Q 30 72 50 78 Q 68 84 78 58"
        fill="none" stroke="#2196F3" stroke-width="3.2"
        stroke-dasharray="5.5 4.5" stroke-linecap="round" opacity="0.75"/>
  <circle cx="18" cy="102" r="4.5" fill="#5B7BA0"/>
  <circle cx="18" cy="102" r="2.2" fill="#E8EFF8"/>
  <ellipse cx="78" cy="110" rx="14" ry="4" fill="#2196F3" opacity="0.18"/>
  <circle cx="78" cy="50" r="28" fill="url(#pg)"/>
  <circle cx="78" cy="50" r="23" fill="none" stroke="rgba(255,255,255,0.12)" stroke-width="1.2"/>
  <path d="M 63 72 Q 78 108 93 72" fill="url(#pg)"/>
  <path transform="translate(58.5164,65.8182) scale(0.043636,-0.043636)"
        d="M566 314C683 314 727 279 727 236V186C727 142 683 108 566 108H73C41 108 34 90 34 54C34 18 41 0 73 0H563C760 0 859 61 859 186V236C859 360 760 422 563 422H327C210 422 166 457 166 500V539C166 583 210 617 327 617H430C462 617 469 635 469 671C469 707 462 725 430 725H330C133 725 34 664 34 539V500C34 376 133 314 330 314Z"
        fill="white"/>
</svg>
